<svg xmlns="http://www.w3.org/2000/svg" xmlns:xlink="http://www.w3.org/1999/xlink" xmlns:fi="http://pattern.flaticon.com/" x="0" y="0" width="700" height="350" viewBox="0 0 700 350"><rect x="0px" y="0px" width="100%" height="100%" opacity="1" fill="#ffffff"/><defs><g transform="matrix(0.06332298992860677 -0.024123043549010927 0.024123043549010927 0.06332298992860677 35.472618661919306 19.78632608640543)" id="L1_0"><path d="M128,224c0-5.896-4.771-10.667-10.667-10.667c-5.896,0-10.667,4.771-10.667,10.667c0,28.01,30.896,66.469,34.417,70.771     c2.115,2.563,5.177,3.896,8.26,3.896c2.375,0,4.771-0.792,6.76-2.417c4.552-3.74,5.208-10.458,1.479-15.021     C146.146,267.292,128,239.437,128,224z" fill="#ffb03b"/><path d="M352,213.333c-5.896,0-10.667,4.771-10.667,10.667c0,15.385-18.146,43.271-29.583,57.24     c-3.729,4.552-3.063,11.271,1.49,15.01c1.979,1.625,4.375,2.417,6.76,2.417c3.083,0,6.135-1.333,8.25-3.896     c3.521-4.302,34.417-42.76,34.417-70.771C362.667,218.104,357.896,213.333,352,213.333z" fill="#ffb03b"/><path d="M234.667,213.333c-5.896,0-10.667,4.771-10.667,10.667v64c0,5.896,4.771,10.667,10.667,10.667     s10.667-4.771,10.667-10.667v-64C245.333,218.104,240.562,213.333,234.667,213.333z" fill="#ffb03b"/><path d="M352,42.667c-6.464,0-13.219,0.855-20.234,2.158C308.273,17.439,273.496,0,234.667,0s-73.607,17.439-97.099,44.824     c-7.016-1.302-13.771-2.158-20.234-2.158C52.635,42.667,0,95.302,0,160c0,44.333,25,84.635,64.25,104.562L64.042,425.76     c-0.01,11.635,4.51,22.573,12.729,30.802c8.229,8.24,19.156,12.771,30.792,12.771h254.25c24,0,43.521-19.521,43.521-43.521     V264.406c39.104-19.979,64-60.219,64-104.406C469.333,95.302,416.698,42.667,352,42.667z M384,425.813     c0,12.229-9.958,22.188-22.188,22.188h-254.25c-5.927,0-11.5-2.313-15.698-6.51c-4.188-4.198-6.5-9.771-6.49-15.708L85.43,384     H384V425.813z M390.604,247.802c-0.563,0.229-1.094,0.5-1.594,0.823c-1.344,0.833-2.448,1.938-3.271,3.208     c-0.833,1.26-1.396,2.719-1.625,4.281c-0.094,0.594-0.125,1.188-0.115,1.792v104.76H85.457l0.137-104.615     c0.01-0.583-0.021-1.177-0.104-1.75c-0.229-1.615-0.823-3.115-1.688-4.417c-0.813-1.219-1.875-2.281-3.167-3.094     c-0.531-0.333-1.094-0.625-1.677-0.865C43.948,232.615,21.333,198.135,21.333,160c0-52.938,43.063-96,96-96     c2.069,0,4.253,0.25,6.396,0.419c-10.792,18.756-17.063,40.43-17.063,63.581c0,5.896,4.771,10.667,10.667,10.667     c5.896,0,10.667-4.771,10.667-10.667c0-58.813,47.854-106.667,106.667-106.667S341.333,69.187,341.333,128     c0,5.896,4.771,10.667,10.667,10.667c5.896,0,10.667-4.771,10.667-10.667c0-23.151-6.271-44.824-17.063-63.581     C347.747,64.25,349.931,64,352,64c52.938,0,96,43.063,96,96C448,198,425.479,232.437,390.604,247.802z" fill="#ffb03b"/></g><g transform="matrix(0.09214679896831512 0 0 0.09214679896831512 147.83285856246948 95.84643543786876)" id="L1_1"><path d="M472,428.416h-48.8l-11.848-112.544l13.112,19.664l3.248,16.264c1.568,7.84,6.496,14.512,13.528,18.328    c3.984,2.16,8.36,3.248,12.76,3.248c3.368,0,6.752-0.64,9.976-1.928c6.944-2.776,12.448-8.376,15.112-15.368    c2.656-6.992,2.264-14.832-1.08-21.528l-6.848-13.704c-0.024-0.056-0.072-0.088-0.104-0.136c-0.016-0.04-0.016-0.08-0.032-0.12    l-48-88c-0.888-1.632-2.328-2.904-4.048-3.6l-21.68-8.672C413.568,207.104,424,186.96,424,164.416    c0-12.056-3.176-23.928-9.016-34.552l-4.128-41.296C423.736,83.112,432,72.4,432,60.416c0-17.224-17.096-31.312-38.424-31.976    C385.072,13.68,369.304,4.416,352,4.416c-17.304,0-33.072,9.264-41.576,24.024C289.096,29.104,272,43.192,272,60.416    c0,11.984,8.264,22.696,21.144,28.152l-4.128,41.296c-5.84,10.624-9.016,22.496-9.016,34.552    c0,22.544,10.432,42.688,26.712,55.896l-21.68,8.672c-1.28,0.512-2.408,1.352-3.272,2.432l-27,33.752l-32.624-26.096l-8.712-14.52    c-1.48-2.472-3.368-4.568-5.408-6.48v-21.656c0-10.416-6.712-19.216-16-22.528v-33.472h8c13.232,0,24-10.768,24-24v-48    c0-13.232-10.768-24-24-24h-32c-13.232,0-24,10.768-24,24v48c0,13.232,10.768,24,24,24h8v33.472c-9.288,3.312-16,12.112-16,22.528    v32c0,0.008,0,0.024,0,0.032c-2,4.76-2.896,9.952-2.248,15.264c1.144,9.256,6.384,17.32,14.376,22.12l15.136,9.08l53.184,46.536    c8.936,7.808,22.032,7.976,31.168,0.368l22.36-18.64L280.8,428.416H140.944l9.384-18.768c14.976-5.784,25.672-20.24,25.672-37.232    v-17.472c9.288-3.312,16-12.112,16-22.528c0-13.232-10.768-24-24-24H24c-13.232,0-24,10.768-24,24    c0,10.416,6.712,19.216,16,22.528v17.472c0,16.992,10.696,31.448,25.672,37.232l9.384,18.768H8c-4.416,0-8,3.584-8,8v32    c0,4.416,3.584,8,8,8h464c4.416,0,8-3.584,8-8v-32C480,432,476.416,428.416,472,428.416z M176,124.416h-8c-4.408,0-8-3.592-8-8    v-48c0-4.408,3.592-8,8-8h8V124.416z M463.696,341.696c1.368,2.736,1.528,5.824,0.44,8.688c-1.088,2.856-3.256,5.064-6.096,6.2    c-2.984,1.192-6.336,1-9.168-0.536c-2.832-1.536-4.832-4.232-5.464-7.392l-2.064-10.328l18.376-4.592L463.696,341.696z     M410.36,242.776l41.664,76.384l-16.496,4.12L407.4,281.088l-11.616-44.144L410.36,242.776z M392.8,292.416l14.32,136H296.888    l14.312-136H392.8z M314.384,276.416l11.792-44.84c0.32,0.12,0.648,0.208,0.968,0.32c1.608,0.592,3.224,1.16,4.88,1.64    c0.632,0.184,1.272,0.328,1.904,0.488c1.528,0.4,3.056,0.784,4.616,1.08c0.784,0.152,1.576,0.24,2.36,0.36    c1.448,0.224,2.888,0.464,4.36,0.608c1.032,0.096,2.072,0.104,3.104,0.16c1.216,0.064,2.408,0.184,3.632,0.184    s2.416-0.12,3.632-0.184c1.04-0.056,2.072-0.064,3.104-0.16c1.472-0.136,2.912-0.376,4.36-0.608c0.784-0.12,1.576-0.208,2.36-0.36    c1.56-0.296,3.088-0.688,4.616-1.08c0.632-0.168,1.272-0.304,1.904-0.488c1.656-0.48,3.28-1.04,4.88-1.64    c0.32-0.12,0.648-0.2,0.968-0.32l11.8,44.84H314.384z M288,60.416c0-8.672,10.992-16,24-16c0.464,0,0.904,0.056,1.352,0.104    l1.288,0.12c3.368,0.2,6.6-1.68,7.96-4.824c5.056-11.784,16.6-19.4,29.4-19.4s24.344,7.616,29.408,19.4    c1.352,3.144,4.632,5.088,7.96,4.824l1.288-0.12c0.44-0.048,0.88-0.104,1.344-0.104c13.008,0,24,7.328,24,16    c0,6.392-6.464,12.504-15.72,14.872c-3.832,0.976-6.376,4.608-5.984,8.544l4.864,48.584h-94.32l4.856-48.576    c0.392-3.936-2.152-7.568-5.984-8.544C294.464,72.92,288,66.808,288,60.416z M296,164.416c0-5.424,0.808-10.816,2.36-16h107.272    c1.56,5.184,2.368,10.576,2.368,16c0,22.208-13.032,41.384-31.816,50.432c-1.816,0.872-3.672,1.648-5.552,2.312    c-0.088,0.032-0.176,0.064-0.264,0.096c-11.92,4.168-24.832,4.168-36.752,0c-0.088-0.032-0.176-0.064-0.264-0.096    c-1.88-0.664-3.728-1.44-5.552-2.312C309.032,205.8,296,186.624,296,164.416z M192,60.416h8c4.408,0,8,3.592,8,8v48    c0,4.408-3.592,8-8,8h-8V60.416z M184,188.416c4.408,0,8,3.592,8,8v13.904c-0.048-0.008-0.104-0.008-0.152-0.016    c-0.192-0.024-0.36-0.112-0.552-0.136c-0.44-0.056-0.872,0.024-1.304-0.016c-1.392-0.112-2.768-0.128-4.16-0.048    c-0.696,0.04-1.384,0.04-2.064,0.128c-1.648,0.208-3.256,0.592-4.848,1.072c-0.68,0.208-1.336,0.424-2,0.672    c-0.304,0.112-0.616,0.184-0.912,0.304v-15.864H176C176,192.008,179.592,188.416,184,188.416z M180.376,252.112    c-3.752-2.248-6.208-6.024-6.736-10.36c-0.352-2.824,0.232-5.584,1.48-8.04c0.032-0.064,0.088-0.104,0.12-0.168    c0.344-0.656,0.688-1.216,1.04-1.736c0.432-0.6,0.856-1.208,1.384-1.736c1.12-1.128,2.424-1.984,3.792-2.648    c0.112-0.056,0.224-0.128,0.336-0.184c1.368-0.616,2.824-1,4.312-1.152c0.112-0.008,0.216-0.024,0.328-0.032    c1.448-0.12,2.912,0.008,4.352,0.336c0.152,0.032,0.304,0.064,0.448,0.104c1.496,0.4,2.952,1.016,4.288,1.928    c0.04,0.024,0.088,0.04,0.128,0.064c1.608,1.12,3.008,2.552,4.056,4.296l6.232,10.392l-15.168,15.168L180.376,252.112z     M261.376,309.52c-3.04,2.528-7.416,2.488-10.392-0.12l-47.288-41.376l12.888-12.888l34.408,27.528    c3.44,2.76,8.48,2.208,11.24-1.248l30.68-38.352l15.288-6.112l-11.304,42.968L261.376,309.52z M24,340.416c-4.408,0-8-3.592-8-8    c0-4.408,3.592-8,8-8h144c4.408,0,8,3.592,8,8c0,4.408-3.592,8-8,8H24z M32,372.416v-16h128v16c0,13.232-10.768,24-24,24H56    C42.768,396.416,32,385.648,32,372.416z M131.056,412.416l-8,16H104v-16H131.056z M88,412.416v16H68.944l-8-16H88z M464,460.416    H16v-16h48h64h160h128h48V460.416z" fill="#b64926"/><path d="M376,324.416h-48c-4.416,0-8,3.584-8,8v24c0,17.648,14.352,32,32,32s32-14.352,32-32v-24    C384,328,380.416,324.416,376,324.416z M368,356.416c0,8.824-7.176,16-16,16c-8.824,0-16-7.176-16-16v-16h32V356.416z" fill="#b64926"/><rect x="88px" y="244px" width="16px" height="40px" fill="#b64926"/><rect x="128px" y="260px" width="16px" height="32px" fill="#b64926"/><rect x="48px" y="260px" width="16px" height="32px" fill="#b64926"/><rect x="88px" y="212px" width="16px" height="16px" fill="#b64926"/><rect x="48px" y="228px" width="16px" height="16px" fill="#b64926"/><rect x="128px" y="228px" width="16px" height="16px" fill="#b64926"/></g><g transform="matrix(0.09214679896831512 0 0 0.09214679896831512 209.83285856246948 306.84643540412367)"><path d="M472,428.416h-48.8l-11.848-112.544l13.112,19.664l3.248,16.264c1.568,7.84,6.496,14.512,13.528,18.328    c3.984,2.16,8.36,3.248,12.76,3.248c3.368,0,6.752-0.64,9.976-1.928c6.944-2.776,12.448-8.376,15.112-15.368    c2.656-6.992,2.264-14.832-1.08-21.528l-6.848-13.704c-0.024-0.056-0.072-0.088-0.104-0.136c-0.016-0.04-0.016-0.08-0.032-0.12    l-48-88c-0.888-1.632-2.328-2.904-4.048-3.6l-21.68-8.672C413.568,207.104,424,186.96,424,164.416    c0-12.056-3.176-23.928-9.016-34.552l-4.128-41.296C423.736,83.112,432,72.4,432,60.416c0-17.224-17.096-31.312-38.424-31.976    C385.072,13.68,369.304,4.416,352,4.416c-17.304,0-33.072,9.264-41.576,24.024C289.096,29.104,272,43.192,272,60.416    c0,11.984,8.264,22.696,21.144,28.152l-4.128,41.296c-5.84,10.624-9.016,22.496-9.016,34.552    c0,22.544,10.432,42.688,26.712,55.896l-21.68,8.672c-1.28,0.512-2.408,1.352-3.272,2.432l-27,33.752l-32.624-26.096l-8.712-14.52    c-1.48-2.472-3.368-4.568-5.408-6.48v-21.656c0-10.416-6.712-19.216-16-22.528v-33.472h8c13.232,0,24-10.768,24-24v-48    c0-13.232-10.768-24-24-24h-32c-13.232,0-24,10.768-24,24v48c0,13.232,10.768,24,24,24h8v33.472c-9.288,3.312-16,12.112-16,22.528    v32c0,0.008,0,0.024,0,0.032c-2,4.76-2.896,9.952-2.248,15.264c1.144,9.256,6.384,17.32,14.376,22.12l15.136,9.08l53.184,46.536    c8.936,7.808,22.032,7.976,31.168,0.368l22.36-18.64L280.8,428.416H140.944l9.384-18.768c14.976-5.784,25.672-20.24,25.672-37.232    v-17.472c9.288-3.312,16-12.112,16-22.528c0-13.232-10.768-24-24-24H24c-13.232,0-24,10.768-24,24    c0,10.416,6.712,19.216,16,22.528v17.472c0,16.992,10.696,31.448,25.672,37.232l9.384,18.768H8c-4.416,0-8,3.584-8,8v32    c0,4.416,3.584,8,8,8h464c4.416,0,8-3.584,8-8v-32C480,432,476.416,428.416,472,428.416z M176,124.416h-8c-4.408,0-8-3.592-8-8    v-48c0-4.408,3.592-8,8-8h8V124.416z M463.696,341.696c1.368,2.736,1.528,5.824,0.44,8.688c-1.088,2.856-3.256,5.064-6.096,6.2    c-2.984,1.192-6.336,1-9.168-0.536c-2.832-1.536-4.832-4.232-5.464-7.392l-2.064-10.328l18.376-4.592L463.696,341.696z     M410.36,242.776l41.664,76.384l-16.496,4.12L407.4,281.088l-11.616-44.144L410.36,242.776z M392.8,292.416l14.32,136H296.888    l14.312-136H392.8z M314.384,276.416l11.792-44.84c0.32,0.12,0.648,0.208,0.968,0.32c1.608,0.592,3.224,1.16,4.88,1.64    c0.632,0.184,1.272,0.328,1.904,0.488c1.528,0.4,3.056,0.784,4.616,1.08c0.784,0.152,1.576,0.24,2.36,0.36    c1.448,0.224,2.888,0.464,4.36,0.608c1.032,0.096,2.072,0.104,3.104,0.16c1.216,0.064,2.408,0.184,3.632,0.184    s2.416-0.12,3.632-0.184c1.04-0.056,2.072-0.064,3.104-0.16c1.472-0.136,2.912-0.376,4.36-0.608c0.784-0.12,1.576-0.208,2.36-0.36    c1.56-0.296,3.088-0.688,4.616-1.08c0.632-0.168,1.272-0.304,1.904-0.488c1.656-0.48,3.28-1.04,4.88-1.64    c0.32-0.12,0.648-0.2,0.968-0.32l11.8,44.84H314.384z M288,60.416c0-8.672,10.992-16,24-16c0.464,0,0.904,0.056,1.352,0.104    l1.288,0.12c3.368,0.2,6.6-1.68,7.96-4.824c5.056-11.784,16.6-19.4,29.4-19.4s24.344,7.616,29.408,19.4    c1.352,3.144,4.632,5.088,7.96,4.824l1.288-0.12c0.44-0.048,0.88-0.104,1.344-0.104c13.008,0,24,7.328,24,16    c0,6.392-6.464,12.504-15.72,14.872c-3.832,0.976-6.376,4.608-5.984,8.544l4.864,48.584h-94.32l4.856-48.576    c0.392-3.936-2.152-7.568-5.984-8.544C294.464,72.92,288,66.808,288,60.416z M296,164.416c0-5.424,0.808-10.816,2.36-16h107.272    c1.56,5.184,2.368,10.576,2.368,16c0,22.208-13.032,41.384-31.816,50.432c-1.816,0.872-3.672,1.648-5.552,2.312    c-0.088,0.032-0.176,0.064-0.264,0.096c-11.92,4.168-24.832,4.168-36.752,0c-0.088-0.032-0.176-0.064-0.264-0.096    c-1.88-0.664-3.728-1.44-5.552-2.312C309.032,205.8,296,186.624,296,164.416z M192,60.416h8c4.408,0,8,3.592,8,8v48    c0,4.408-3.592,8-8,8h-8V60.416z M184,188.416c4.408,0,8,3.592,8,8v13.904c-0.048-0.008-0.104-0.008-0.152-0.016    c-0.192-0.024-0.36-0.112-0.552-0.136c-0.44-0.056-0.872,0.024-1.304-0.016c-1.392-0.112-2.768-0.128-4.16-0.048    c-0.696,0.04-1.384,0.04-2.064,0.128c-1.648,0.208-3.256,0.592-4.848,1.072c-0.68,0.208-1.336,0.424-2,0.672    c-0.304,0.112-0.616,0.184-0.912,0.304v-15.864H176C176,192.008,179.592,188.416,184,188.416z M180.376,252.112    c-3.752-2.248-6.208-6.024-6.736-10.36c-0.352-2.824,0.232-5.584,1.48-8.04c0.032-0.064,0.088-0.104,0.12-0.168    c0.344-0.656,0.688-1.216,1.04-1.736c0.432-0.6,0.856-1.208,1.384-1.736c1.12-1.128,2.424-1.984,3.792-2.648    c0.112-0.056,0.224-0.128,0.336-0.184c1.368-0.616,2.824-1,4.312-1.152c0.112-0.008,0.216-0.024,0.328-0.032    c1.448-0.12,2.912,0.008,4.352,0.336c0.152,0.032,0.304,0.064,0.448,0.104c1.496,0.4,2.952,1.016,4.288,1.928    c0.04,0.024,0.088,0.04,0.128,0.064c1.608,1.12,3.008,2.552,4.056,4.296l6.232,10.392l-15.168,15.168L180.376,252.112z     M261.376,309.52c-3.04,2.528-7.416,2.488-10.392-0.12l-47.288-41.376l12.888-12.888l34.408,27.528    c3.44,2.76,8.48,2.208,11.24-1.248l30.68-38.352l15.288-6.112l-11.304,42.968L261.376,309.52z M24,340.416c-4.408,0-8-3.592-8-8    c0-4.408,3.592-8,8-8h144c4.408,0,8,3.592,8,8c0,4.408-3.592,8-8,8H24z M32,372.416v-16h128v16c0,13.232-10.768,24-24,24H56    C42.768,396.416,32,385.648,32,372.416z M131.056,412.416l-8,16H104v-16H131.056z M88,412.416v16H68.944l-8-16H88z M464,460.416    H16v-16h48h64h160h128h48V460.416z" fill="#b64926"/><path d="M376,324.416h-48c-4.416,0-8,3.584-8,8v24c0,17.648,14.352,32,32,32s32-14.352,32-32v-24    C384,328,380.416,324.416,376,324.416z M368,356.416c0,8.824-7.176,16-16,16c-8.824,0-16-7.176-16-16v-16h32V356.416z" fill="#b64926"/><rect x="88px" y="244px" width="16px" height="40px" fill="#b64926"/><rect x="128px" y="260px" width="16px" height="32px" fill="#b64926"/><rect x="48px" y="260px" width="16px" height="32px" fill="#b64926"/><rect x="88px" y="212px" width="16px" height="16px" fill="#b64926"/><rect x="48px" y="228px" width="16px" height="16px" fill="#b64926"/><rect x="128px" y="228px" width="16px" height="16px" fill="#b64926"/></g><g transform="matrix(0.05374247580766678 0 0 0.05374247580766678 8.376102935522795 212.3761029355228)"><path d="M128,224c0-5.896-4.771-10.667-10.667-10.667c-5.896,0-10.667,4.771-10.667,10.667c0,28.01,30.896,66.469,34.417,70.771     c2.115,2.563,5.177,3.896,8.26,3.896c2.375,0,4.771-0.792,6.76-2.417c4.552-3.74,5.208-10.458,1.479-15.021     C146.146,267.292,128,239.437,128,224z" fill="#ffb03b"/><path d="M352,213.333c-5.896,0-10.667,4.771-10.667,10.667c0,15.385-18.146,43.271-29.583,57.24     c-3.729,4.552-3.063,11.271,1.49,15.01c1.979,1.625,4.375,2.417,6.76,2.417c3.083,0,6.135-1.333,8.25-3.896     c3.521-4.302,34.417-42.76,34.417-70.771C362.667,218.104,357.896,213.333,352,213.333z" fill="#ffb03b"/><path d="M234.667,213.333c-5.896,0-10.667,4.771-10.667,10.667v64c0,5.896,4.771,10.667,10.667,10.667     s10.667-4.771,10.667-10.667v-64C245.333,218.104,240.562,213.333,234.667,213.333z" fill="#ffb03b"/><path d="M352,42.667c-6.464,0-13.219,0.855-20.234,2.158C308.273,17.439,273.496,0,234.667,0s-73.607,17.439-97.099,44.824     c-7.016-1.302-13.771-2.158-20.234-2.158C52.635,42.667,0,95.302,0,160c0,44.333,25,84.635,64.25,104.562L64.042,425.76     c-0.01,11.635,4.51,22.573,12.729,30.802c8.229,8.24,19.156,12.771,30.792,12.771h254.25c24,0,43.521-19.521,43.521-43.521     V264.406c39.104-19.979,64-60.219,64-104.406C469.333,95.302,416.698,42.667,352,42.667z M384,425.813     c0,12.229-9.958,22.188-22.188,22.188h-254.25c-5.927,0-11.5-2.313-15.698-6.51c-4.188-4.198-6.5-9.771-6.49-15.708L85.43,384     H384V425.813z M390.604,247.802c-0.563,0.229-1.094,0.5-1.594,0.823c-1.344,0.833-2.448,1.938-3.271,3.208     c-0.833,1.26-1.396,2.719-1.625,4.281c-0.094,0.594-0.125,1.188-0.115,1.792v104.76H85.457l0.137-104.615     c0.01-0.583-0.021-1.177-0.104-1.75c-0.229-1.615-0.823-3.115-1.688-4.417c-0.813-1.219-1.875-2.281-3.167-3.094     c-0.531-0.333-1.094-0.625-1.677-0.865C43.948,232.615,21.333,198.135,21.333,160c0-52.938,43.063-96,96-96     c2.069,0,4.253,0.25,6.396,0.419c-10.792,18.756-17.063,40.43-17.063,63.581c0,5.896,4.771,10.667,10.667,10.667     c5.896,0,10.667-4.771,10.667-10.667c0-58.813,47.854-106.667,106.667-106.667S341.333,69.187,341.333,128     c0,5.896,4.771,10.667,10.667,10.667c5.896,0,10.667-4.771,10.667-10.667c0-23.151-6.271-44.824-17.063-63.581     C347.747,64.25,349.931,64,352,64c52.938,0,96,43.063,96,96C448,198,425.479,232.437,390.604,247.802z" fill="#ffb03b"/></g><g transform="matrix(0.07478199154138565 0 0 0.07478199154138565 309.8558101654053 54.85581016540527)" id="L1_2"><path d="M376,307.13v75.9A40.9722,40.9722,0,0,1,335.03,424H64.97A40.97228,40.97228,0,0,1,24,383.03v-9.74A799.92513,799.92513,0,0,1,95.71,42.25L104,24H297.45a39.99655,39.99655,0,0,1,38.59,29.48l11.77,43.16A799.96461,799.96461,0,0,1,376,307.13Z" fill="#eedc9a"/><path d="M347.81,96.64,336.04,53.48A40.0032,40.0032,0,0,0,304,24.539V24H232V88h36.61786A799.93459,799.93459,0,0,0,216,373.29v9.74A40.97056,40.97056,0,0,0,256.97,424H335.03A40.97056,40.97056,0,0,0,376,383.03v-75.9A799.96461,799.96461,0,0,0,347.81,96.64Z" fill="#e88604"/><path d="M256,96a24,24,0,0,0,24,24H64A24,24,0,0,1,40,96V64A40,40,0,0,1,80,24H296a40,40,0,0,0-40,40Z" fill="#ece9c0"/><path d="M256,72h48a0,0,0,0,1,0,0V96a24,24,0,0,1-24,24h0a24,24,0,0,1-24-24V72A0,0,0,0,1,256,72Z" fill="#eebe33"/><path d="M104,280v0a127.93082,127.93082,0,0,0,8.6987,46.36807L140.165,396.9957A80,80,0,0,0,214.72537,448H377.27463A80,80,0,0,0,451.835,396.9957l27.46629-70.62761A127.93082,127.93082,0,0,0,488,280v0Z" fill="#379ec3"/><path d="M488,280c0,14.40991-18.67,27.55005-49.35,37.48C403.51,328.85,352.62,336,296,336s-107.51-7.15-142.65-18.52C122.67,307.55005,104,294.40991,104,280c0-30.93,85.96-56,192-56S488,249.07,488,280Z" fill="#8acce7"/><path d="M440,312a12.21446,12.21446,0,0,1-1.35,5.48C403.51,328.85,352.62,336,296,336s-107.51-7.15-142.65-18.52A12.21446,12.21446,0,0,1,152,312c0-22.09009,64.47-40,144-40S440,289.90991,440,312Z" fill="#eedc9a"/><path d="M364.26106,163.93644,427.93669,59.74a23.323,23.323,0,0,1,31.90069-7.83753l0,0a23.323,23.323,0,0,1,7.90152,32.16111L404.06331,188.26a23.323,23.323,0,0,1-31.90069,7.83753l0,0A23.323,23.323,0,0,1,364.26106,163.93644Z" fill="#a6b2bc"/><path d="M328,424l64.09859-5.82714A21.91712,21.91712,0,0,1,416,440v0a21.91712,21.91712,0,0,1-23.90141,21.82712L328,456Z" fill="#966342"/><rect x="56px" y="392px" width="328px" height="96px" fill="#723024"/><circle cx="104" cy="440" r="48" fill="#984e3c"/><path d="M96.06572,457.44857l-48.16431,4.37857A21.91712,21.91712,0,0,1,24,440v0a21.91712,21.91712,0,0,1,23.90141-21.82712l48.16431,4.37857A17.5205,17.5205,0,0,1,112,440v0A17.5205,17.5205,0,0,1,96.06572,457.44857Z" fill="#ad7d4d"/><path d="M34.96143,396.68652A32.75766,32.75766,0,0,1,32,383.0293v-9.7417A790.59356,790.59356,0,0,1,70.95117,128H246.134c-7.35144,23.08411-13.71539,46.67163-18.95086,70.26709l15.62011,3.46582C248.30328,176.94434,255.087,152.17249,262.95813,128H280a32.036,32.036,0,0,0,32-32V72a7.99977,7.99977,0,0,0-8-8H264a32.036,32.036,0,0,1,32-32h1.44824a32.06925,32.06925,0,0,1,30.87207,23.58008l11.77246,43.16553c2.792,10.23584,5.415,20.68115,7.79688,31.04589l15.59375-3.583c-2.42969-10.57373-5.106-21.23-7.9541-31.67286L343.75684,51.37012A48.10546,48.10546,0,0,0,297.44824,16H80A48.05436,48.05436,0,0,0,32,64V96a32.05585,32.05585,0,0,0,22.58533,30.58478A806.527,806.527,0,0,0,16,373.2876v9.7417A48.6442,48.6442,0,0,0,20.39893,403.314ZM296,80V96a16,16,0,0,1-32,0V80ZM48,96V64A32.036,32.036,0,0,1,80,32H260.252A47.80823,47.80823,0,0,0,248,64V96a31.80882,31.80882,0,0,0,4.29443,16H64A16.01833,16.01833,0,0,1,48,96Z"/><path d="M417.82129,228.49219l-3.64258,15.58008C462.76172,255.43164,480,270.52588,480,280c0,8.145-11.56036,17.59692-32.93567,25.94861-3.73523-11.89856-18.76288-21.73657-44.83484-29.30164l-4.459,15.36621c22.22027,6.44727,33.00268,14.22864,34.12561,19.15247C400.11121,320.8374,353.69568,328,296,328c-57.69812,0-104.11511-7.16321-135.90015-16.83557,1.59888-7.55017,24.41449-20.3783,72.99341-27.07947l-2.18652-15.84961c-24.37354,3.36231-45.0874,8.57715-59.90137,15.08106-14.59808,6.40869-23.3302,14.00195-26.067,22.63317C123.56146,297.59766,112,288.14539,112,280c0-3.37256,2.74854-15.35449,38.1167-27.93945,26.94189-9.58643,64.7207-16.28418,106.377-18.85889l-.9873-15.96973c-43.10791,2.66455-82.44092,9.68018-110.75342,19.7544C104.458,251.32471,96,268.2915,96,280a135.40123,135.40123,0,0,0,9.24268,49.26758l16.18994,41.63183,14.91211-5.79882-16.18994-41.63184a120.26574,120.26574,0,0,1-4.58008-14.41125c10.26,6.85681,24.46173,12.98242,42.4209,18.22033C194.96729,338.06152,243.978,344,296,344s101.03271-5.93848,138.00439-16.72217c17.95917-5.23791,32.161-11.36352,42.4209-18.22033a120.26574,120.26574,0,0,1-4.58008,14.41125l-27.4663,70.62744a71.90524,71.90524,0,0,1-10.65039,18.59815l12.543,9.93261A87.87832,87.87832,0,0,0,459.291,399.895l27.4663-70.62744A135.40123,135.40123,0,0,0,496,280C496,251.08887,447.01855,235.31934,417.82129,228.49219Z"/><path d="M354.31482,166.57275a164.02041,164.02041,0,0,0-90.45007,80.39893l-23.02,46.03027,14.31054,7.15625,23.021-46.03222a147.97176,147.97176,0,0,1,75.65851-70.2193,31.70933,31.70933,0,0,0,1.55115,4.56244c-22.067,18.579-41.89734,43.90338-56.27851,72.02942l-23.55029,45.75,14.22558,7.32324,23.56055-45.76953c13.34845-26.106,31.62927-49.54255,51.91767-66.72779a31.889,31.889,0,0,0,2.786,1.88306,31.22786,31.22786,0,0,0,3.30023,1.70624q-4.8036,8.99753-10.018,18.72052-13.08765,24.42846-26.96728,50.64843l-18.14161,34.22022,14.13672,7.49414,18.15284-34.24219q13.80541-26.23682,26.92236-50.56445c4.13519-7.71826,8.1112-15.14014,11.862-22.17664a146.04536,146.04536,0,0,1-17.67743,78.80555l-11.23486,20.60009,14.04687,7.66114,11.23389-20.59815A162.04587,162.04587,0,0,0,402.77118,201.273a31.03527,31.03527,0,0,0,8.11847-8.84137L474.56494,88.23486a31.32289,31.32289,0,0,0-53.45459-32.6665L357.43506,159.76514A31.55046,31.55046,0,0,0,354.31482,166.57275Zm16.77258,1.53516L434.7627,63.91162a15.32313,15.32313,0,1,1,26.1499,15.98047L397.2373,184.08838a15.32313,15.32313,0,1,1-26.1499-15.98047Z"/><path d="M414.2627,417.91455a30.017,30.017,0,0,0-22.88721-7.71191l-7.55493.68689A56.01807,56.01807,0,0,0,336,384H104a56.03137,56.03137,0,0,0-47.84167,26.89038l-7.53235-.68481a29.91695,29.91695,0,1,0-2.69287,59.71093c.895,0,1.79443-.04052,2.69238-.12207l7.5321-.68469A56.36491,56.36491,0,0,0,104,496H336a55.5933,55.5933,0,0,0,39.59375-16.3999,56.29266,56.29266,0,0,0,8.26105-10.48657l7.53094.68481c.90137.08057,1.81787.12158,2.72412.12158a29.91842,29.91842,0,0,0,20.15284-52.00537ZM47.17676,453.85986A13.91812,13.91812,0,1,1,45.874,426.08057q.64746,0,1.30323.05957l48.16406,4.37841a9.52054,9.52054,0,0,1,0,18.9629h.00049ZM74.91791,467.4043,96.79,465.416h.00049A25.52089,25.52089,0,0,0,96.79,414.584L74.87628,412.5918c.27844-.29492.55585-.59058.84393-.87793A39.99923,39.99923,0,1,1,104,480,40.21831,40.21831,0,0,1,74.91791,467.4043Zm289.36188.88183A39.70208,39.70208,0,0,1,336,480H143.13831a55.87567,55.87567,0,0,0,0-80H336a39.99815,39.99815,0,0,1,28.27979,68.28613Zm29.83007-14.36621c-.43115,0-.86718-.01953-1.28515-.05713l-2.48725-.22607a56.35543,56.35543,0,0,0-.024-27.27149l2.50683-.228a13.91993,13.91993,0,1,1,1.28955,27.78271Z"/></g><g transform="matrix(0.05311478674411774 0 0 0.05311478674411774 60.25245118141174 121.25245118141174)" id="L1_3"><path d="m403.679688 364.320312c-7.480469-7.527343-11.679688-17.707031-11.679688-28.320312v-30.648438c.097656-10.796874-6.640625-20.476562-16.800781-24.136718-.464844-.144532-.910157-.3125-1.382813-.429688-.855468-.199218-1.722656-.355468-2.59375-.464844-.75-.097656-1.503906-.191406-2.269531-.222656-1.007813-.027344-2.015625.007813-3.015625.109375-.714844.066407-1.433594.097657-2.121094.21875-.984375.207031-1.953125.472657-2.90625.796875-.613281.203125-1.253906.34375-1.847656.585938-.996094.425781-1.964844.917968-2.894531 1.480468-.464844.261719-.960938.472657-1.398438.800782-1.339843.878906-2.585937 1.894531-3.722656 3.023437-4.492187 4.472657-7.027344 10.546875-7.046875 16.886719v16c0 22.089844-17.910156 40-40 40s-40-17.910156-40-40v-14.648438c.097656-10.796874-6.640625-20.476562-16.800781-24.136718-.464844-.144532-.910157-.3125-1.382813-.429688-.855468-.199218-1.722656-.355468-2.59375-.464844-.75-.097656-1.503906-.191406-2.269531-.222656-1.007813-.027344-2.015625.007813-3.015625.109375-.714844.066407-1.433594.097657-2.121094.21875-.984375.207031-1.953125.472657-2.90625.796875-.613281.203125-1.253906.34375-1.847656.585938-.996094.425781-1.964844.917968-2.894531 1.480468-.464844.261719-.960938.472657-1.398438.800782-1.339843.878906-2.585937 1.894531-3.722656 3.023437-4.492187 4.472657-7.027344 10.546875-7.046875 16.886719v48c0 22.089844-17.910156 40-40 40s-40-17.910156-40-40v-46.648438c.097656-10.796874-6.640625-20.476562-16.800781-24.136718-.464844-.144532-.910157-.3125-1.382813-.429688-.855468-.199218-1.722656-.355468-2.59375-.464844-.75-.097656-1.503906-.191406-2.269531-.222656-1.007813-.027344-2.015625.007813-3.015625.109375-.714844.066407-1.433594.097657-2.121094.21875-.984375.207031-1.953125.472657-2.90625.796875-.613281.203125-1.253906.34375-1.847656.585938-.996094.425781-1.964844.917968-2.894531 1.480468-.464844.261719-.960938.472657-1.398438.800782-1.339843.878906-2.585937 1.894531-3.722656 3.023437-4.492187 4.472657-7.027344 10.546875-7.046875 16.886719v32c.03125 10.617188-4.171875 20.8125-11.679688 28.320312-7.507812 7.507813-17.703124 11.710938-28.320312 11.679688-5.5-.003906-10.941406-1.121094-16-3.28125v99.28125h416v-99.28125c-5.058594 2.160156-10.5 3.277344-16 3.28125-10.613281 0-20.792969-4.199219-28.320312-11.679688zm0 0" fill="#ffcd00"/><path d="m440 232h-400c-17.671875 0-32 14.328125-32 32v72c0 10.613281 4.199219 20.792969 11.679688 28.320312 7.496093 7.527344 17.699218 11.734376 28.320312 11.679688 10.617188.03125 20.8125-4.171875 28.320312-11.679688 7.507813-7.507812 11.710938-17.703124 11.679688-28.320312v-32c0-6.363281 2.53125-12.46875 7.039062-16.960938 1.136719-1.128906 2.382813-2.140624 3.722657-3.023437.4375-.289063.933593-.496094 1.398437-.800781.929688-.558594 1.898438-1.054688 2.894532-1.480469.59375-.246094 1.234374-.382813 1.847656-.582031.953125-.324219 1.921875-.59375 2.90625-.800782.695312-.121093 1.40625-.152343 2.121094-.214843.710937-.066407 1.359374-.136719 2.070312-.136719.320312 0 .625.078125.945312.097656.320313.015625.535157-.058594.796876 0 .503906 0 .960937.191406 1.457031.253906.871093.109376 1.738281.265626 2.59375.464844.472656.128906.925781.28125 1.382812.429688 9.984375 3.085937 16.800781 12.304687 16.824219 22.753906v48c0 22.089844 17.910156 40 40 40s40-17.910156 40-40v-48c0-6.363281 2.53125-12.46875 7.039062-16.960938 1.136719-1.128906 2.382813-2.140624 3.722657-3.023437.4375-.289063.933593-.496094 1.398437-.800781.929688-.558594 1.898438-1.054688 2.894532-1.480469.59375-.246094 1.234374-.382813 1.847656-.582031.953125-.324219 1.921875-.59375 2.90625-.800782.695312-.121093 1.40625-.152343 2.121094-.214843.710937-.066407 1.359374-.136719 2.070312-.136719.320312 0 .625.078125.945312.097656.320313.015625.535157-.058594.796876 0 .503906 0 .960937.191406 1.457031.253906.871093.109376 1.738281.265626 2.59375.464844.472656.128906.925781.28125 1.382812.429688 9.984375 3.085937 16.800781 12.304687 16.824219 22.753906v16c0 22.089844 17.910156 40 40 40s40-17.910156 40-40v-16c0-6.363281 2.53125-12.46875 7.039062-16.960938 1.136719-1.128906 2.382813-2.140624 3.722657-3.023437.4375-.289063.933593-.496094 1.398437-.800781.929688-.558594 1.898438-1.054688 2.894532-1.480469.59375-.246094 1.234374-.382813 1.847656-.582031.953125-.324219 1.921875-.59375 2.90625-.800782.695312-.121093 1.40625-.152343 2.121094-.214843.710937-.066407 1.359374-.136719 2.070312-.136719.320312 0 .625.078125.945312.097656.320313.015625.535157-.058594.796876 0 .503906 0 .960937.191406 1.457031.253906.871093.109376 1.738281.265626 2.59375.464844.472656.128906.925781.28125 1.382812.429688 9.984375 3.085937 16.800781 12.304687 16.824219 22.753906v32c-.03125 10.617188 4.171875 20.8125 11.679688 28.320312 7.507812 7.507813 17.703124 11.710938 28.320312 11.679688 5.5-.003906 10.941406-1.121094 16-3.28125 14.554688-6.417969 23.964844-20.808594 24-36.71875v-72c0-17.671875-14.328125-32-32-32zm0 0" fill="#ff3051"/><path d="m76.320312 364.320312c7.480469-7.527343 11.679688-17.707031 11.679688-28.320312v16c.03125 10.617188-4.171875 20.8125-11.679688 28.320312-7.507812 7.507813-17.703124 11.710938-28.320312 11.679688-10.621094.054688-20.824219-4.152344-28.320312-11.679688-7.480469-7.527343-11.679688-17.707031-11.679688-28.320312v-16c0 10.613281 4.199219 20.792969 11.679688 28.320312 7.496093 7.527344 17.699218 11.734376 28.320312 11.679688 10.613281 0 20.792969-4.199219 28.320312-11.679688zm0 0" fill="#e52b49"/><path d="m204.320312 380.320312c7.480469-7.527343 11.679688-17.707031 11.679688-28.320312v16c0 22.089844-17.910156 40-40 40s-40-17.910156-40-40v-16c.019531 16.179688 9.769531 30.757812 24.710938 36.953125 14.945312 6.191406 32.152343 2.789063 43.609374-8.632813zm0 0" fill="#e52b49"/><path d="m332.320312 348.320312c7.480469-7.527343 11.679688-17.707031 11.679688-28.320312v16c0 22.089844-17.910156 40-40 40s-40-17.910156-40-40v-16c.019531 16.179688 9.769531 30.757812 24.710938 36.953125 14.945312 6.191406 32.152343 2.789063 43.609374-8.632813zm0 0" fill="#e52b49"/><path d="m472 336v16c-.035156 15.910156-9.445312 30.300781-24 36.71875-5.058594 2.160156-10.5 3.277344-16 3.28125-10.617188.03125-20.8125-4.171875-28.320312-11.679688-7.507813-7.507812-11.710938-17.703124-11.679688-28.320312v-16c-.03125 10.617188 4.171875 20.8125 11.679688 28.320312 7.507812 7.507813 17.703124 11.710938 28.320312 11.679688 5.5-.003906 10.941406-1.121094 16-3.28125 14.554688-6.417969 23.964844-20.808594 24-36.71875zm0 0" fill="#e52b49"/><path d="m472 480h-464c-4.417969 0-8-3.582031-8-8s3.582031-8 8-8h464c4.417969 0 8 3.582031 8 8s-3.582031 8-8 8zm0 0" fill="#bcbec0"/><g fill="#ffcd00"><path d="m136 305.351562v-1.351562c-.007812-10.453125-6.816406-19.6875-16.800781-22.785156 10.160156 3.660156 16.898437 13.339844 16.800781 24.136718zm0 0"/><path d="m264 305.351562v-1.351562c-.007812-10.453125-6.816406-19.6875-16.800781-22.785156 10.160156 3.660156 16.898437 13.339844 16.800781 24.136718zm0 0"/><path d="m392 305.351562v-1.351562c-.007812-10.453125-6.816406-19.6875-16.800781-22.785156 10.160156 3.660156 16.898437 13.339844 16.800781 24.136718zm0 0"/></g><path d="m216 128h48v104h-48zm0 0" fill="#ff9811"/><path d="m208 64c0 17.671875 14.328125 32 32 32s32-14.328125 32-32-32-64-32-64-32 46.328125-32 64zm0 0" fill="#ff6243"/><path d="m352 144h48v88h-48zm0 0" fill="#ff9811"/><path d="m344 80c0 17.671875 14.328125 32 32 32s32-14.328125 32-32-32-64-32-64-32 46.328125-32 64zm0 0" fill="#ff6243"/><path d="m80 144h48v88h-48zm0 0" fill="#ff9811"/><path d="m136 80c-.011719 16.097656-11.957031 29.6875-27.921875 31.761719h-.078125c-1.328125.160156-2.664062.242187-4 .238281-17.671875 0-32-14.328125-32-32 0-17.679688 32-64 32-64s1.601562 2.320312 4 6c8.640625 13.121094 28 44.238281 28 58zm0 0" fill="#ff6243"/><path d="m108 111.761719c-1.328125.160156-2.664062.242187-4 .238281-17.671875 0-32-14.328125-32-32 0-17.679688 32-64 32-64s1.601562 2.320312 4 6c-8.640625 13.121094-28 44.238281-28 58 .019531 16.121094 12.007812 29.71875 28 31.761719zm0 0" fill="#e5583c"/><path d="m244 95.761719c-1.328125.160156-2.664062.242187-4 .238281-17.671875 0-32-14.328125-32-32 0-17.679688 32-64 32-64s1.601562 2.320312 4 6c-8.640625 13.121094-28 44.238281-28 58 .019531 16.121094 12.007812 29.71875 28 31.761719zm0 0" fill="#e5583c"/><path d="m380 111.761719c-1.328125.160156-2.664062.242187-4 .238281-17.671875 0-32-14.328125-32-32 0-17.679688 32-64 32-64s1.601562 2.320312 4 6c-8.640625 13.121094-28 44.238281-28 58 .019531 16.121094 12.007812 29.71875 28 31.761719zm0 0" fill="#e5583c"/><path d="m80 144h48v16h-48zm0 0" fill="#e5890f"/><path d="m216 128h48v16h-48zm0 0" fill="#e5890f"/><path d="m352 144h48v16h-48zm0 0" fill="#e5890f"/></g><path d="m3.729 10.8c2.407 1.527 5.989 3.092 7.567 5.373-1.931 2.585-2.455 4.388-1.513 5.346l10.8 10.8c-3.05 3.059.5-.5-17.879 17.877-1.5316561 1.4290991-2.16154994 3.5800214-1.64275868 5.6095904.51879126 2.0295689 2.10359934 3.614377 4.1331683 4.1331683 2.02956895.5187912 4.18049133-.1111026 5.60959038-1.6427587.33-.329-2.8 2.8 17.878-17.878l10.8 10.8c1.295 1.278 3.9-.418 5.35-1.512 2.276 1.581 3.841 5.158 5.367 7.565 1.2008073 1.8950821 3.3797765 2.9363234 5.6085956 2.6801212s4.1146969-1.7646967 4.8541877-3.8828155c.7394908-2.1181189.2022722-4.4725799-1.3827833-6.0603057-1.719-1.722-6.594-3.322-8.575-6.175 1.447-1.922 2.661-4.186 1.508-5.353l-7.3-7.3c2.0372935-.7841215 4.0177172-1.7086757 5.927-2.767 2.0926876-1.1682697 4.0324793-2.5914554 5.775-4.237 8.83-8.809 2.719-23.96-9.769-23.96-3.7634139-.00671673-7.3727723 1.49400131-10.022 4.167-3.0895587 3.39346836-5.4764757 7.3652058-7.023 11.686l-7.289-7.292c-.951-.934-2.752-.413-5.34 1.52-2.281-1.579-3.849-5.165-5.371-7.57-1.2854302-2.02626102-3.67806396-3.06184471-6.03514513-2.61214152-2.35708117.4497032-4.20037247 2.29345127-4.64949163 4.65064379-.44911917 2.35719251.58705731 4.74956958 2.61363676 6.03449773zm21.712 21.125c1.4920944.0367729 2.8181788.9606304 3.3696419 2.3475645s.2218187 2.969131-.8376419 4.0204355c-.1.1.2-.191-.884.894-.6266902-2.6129021-2.6730413-4.6491936-5.289-5.263 1.154-1.157.793-.783.905-.9.7222296-.7267421 1.7117274-1.1242048 2.736-1.099zm30.427-25.379c.519992 1.41782777.5064856 2.97639689-.038 4.385-2.885 9.477-16.954 16.512-25.76 21.461-.07-.1-.82.782 25.798-25.846zm-1.417-1.411-25.806 25.816c-.06-.042-.117-.087-.179-.127 4.289-7.274 8.6-15.382 14.011-20.786 4.163-4.156 9.296-6.17 11.974-4.903zm-41.828 48.518c-1.4 1.4-5.056-.457-5.686-3.372-.19659246-.6611659-.04364603-1.3769251.406-1.9 13.544-13.535 11.868-11.86 12.124-12.115.3347308-.3256807.7894945-.4980275 1.256-.476 2.764-.006 5.6 3.772 4.02 5.75zm-8.536 3.26c-1.45469957-1.474403-1.44127852-3.8481404.03-5.306l.875-.874c.64292285 2.6004085 2.67018367 4.6326711 5.269 5.282l-.868.868c-1.45809013 1.4707298-3.83137268 1.4841483-5.306.03zm53.783-5.488c1.046169 1.0450625 1.401341 2.5969659.9138522 3.9930247-.4874887 1.3960588-1.731485 2.3895497-3.2007844 2.5562378-1.4692993.166688-2.9042347-.5228855-3.6920678-1.7742625-1.457-2.3-2.991-5.8-5.461-7.793 1.0560373-.9268724 2.0504823-1.9216515 2.977-2.978 2.467 3.062 7.127 4.66 8.463 5.996zm-7.189-11.65c-.063.675-1.277 2.936-4.13 5.779s-5.1 4.063-5.776 4.126l-10.755-10.755c.5786213-.827618.9277869-1.7936888 1.012-2.8 3.61-1.255 7.824-2.629 11.848-4.151zm4.519-17.009c-5.047 5.083-14.658 7.984-23.537 11.024 9.452-5.312 24.469-12.959 26.411-23.676 1.5843529 4.4173553.4632672 9.3526289-2.874 12.652zm-20.886-11.6c1.0839541-1.94220378 2.4017706-3.74429422 3.924-5.366 3.3001799-3.33376084 8.2332195-4.45304485 12.649-2.87-10.516 1.884-17.918 16.319-23.373 25.57l3.6-10.243c.8486513-2.4575683 1.9201065-4.8324432 3.201-7.095zm-5.276 6.971-4.151 11.807c-1.0155566.0839271-1.9900455.4385693-2.822 1.027l-10.741-10.742c.3940339-1.2610439 1.06624-2.4174982 1.967-3.384 1.351624-1.6737884 2.8768057-3.1996406 4.55-4.552.9681763-.9010331 2.1258333-1.5738273 3.388-1.969zm-24.908-15.007c.82840219-.82652561 1.98753592-1.23178091 3.15046854-1.10146399 1.16293261.13031692 2.20361789.78208146 2.82853146 1.77146399 1.458 2.3 3 5.811 5.466 7.8-1.0602542.9206214-2.0543786 1.9147458-2.975 2.975-1.99-2.469-5.5-4.009-7.8-5.464-.98945634-.62533766-1.64120477-1.66635549-1.77151081-2.82958005-.13030605-1.16322455.27494575-2.32264903 1.10151081-3.15141995z" transform="matrix(0.5100442432101747 0.06955148578265265 -0.06955148578265265 0.5100442432101747 182.56497149450703 197.3223308617652)" id="L1_4" fill="#ffcd00"/><g transform="matrix(0.12860867381095886 0 0 0.12860867381095886 106 306)" id="L1_6"><path d="m154.203125 188.496094-142.113281-38.824219c-8.527344-2.304687-13.574219-11.085937-11.269532-19.617187 2.304688-8.527344 11.085938-13.574219 19.613282-11.269532l132.875 35.910156zm0 0" fill="#b9b9b9"/><path d="m142.140625 151.671875-1.050781 3.441406c-2.753906 9.234375-4.570313 18.71875-5.421875 28.320313l18.535156 5.0625-.894531-33.808594zm0 0" fill="#a8a8a8"/><path d="m428.171875 228.984375c-6.121094-15.710937-61.160156-41.390625-131.199219-60.320313-70.042968-18.929687-130.496094-24.457031-143.699218-13.96875l-2.621094 3.433594-3.128906 11.582032c-11.53125 42.652343 13.699218 86.574218 56.351562 98.105468l123.566406 33.390625c42.664063 11.550781 86.609375-13.683593 98.136719-56.351562l3.28125-12.855469zm0 0" fill="#e06661"/><path d="m296.953125 168.808594c-76.746094-20.757813-142.230469-25.488282-146.265625-10.5625-4.039062 14.921875 54.90625 43.84375 131.652344 64.601562 76.742187 20.757813 142.230468 25.488282 146.265625 10.566406 4.035156-14.925781-54.90625-43.847656-131.652344-64.605468zm0 0" fill="#878787"/><path d="m288.652344 199.558594c-62.957032-17.011719-115.394532-25.621094-117.121094-19.222656-1.730469 6.398437 47.902344 25.378906 110.859375 42.394531 62.953125 17.011719 115.390625 25.621093 117.121094 19.222656 1.726562-6.398437-47.90625-25.378906-110.859375-42.394531zm0 0" fill="#6f7478"/><path d="m258.644531 257.289062c-.765625-.003906-1.523437-.117187-2.257812-.328124-5.265625-1.554688-10.425781-3.132813-15.480469-4.738282-4.210938-1.335937-6.539062-5.835937-5.199219-10.046875 1.339844-4.210937 5.835938-6.539062 10.046875-5.199219 4.933594 1.566407 9.980469 3.113282 15.144532 4.632813 3.824218 1.113281 6.246093 4.875 5.679687 8.816406-.566406 3.945313-3.949219 6.871094-7.933594 6.863281zm0 0" fill="#ee6d67"/><path d="m305.121094 269.296875c-.585938 0-1.175782-.066406-1.75-.191406-5.171875-1.152344-10.425782-2.390625-15.761719-3.714844-4.21875-1.121094-6.757813-5.417969-5.707031-9.652344 1.050781-4.238281 5.300781-6.851562 9.554687-5.875 5.210938 1.289063 10.355469 2.496094 15.394531 3.625 3.976563.886719 6.652344 4.625 6.210938 8.675781-.445312 4.054688-3.863281 7.125-7.941406 7.132813zm0 0" fill="#ee6d67"/><path d="m299.84375 32h32v40h-32zm0 0" fill="#f7ba61"/><path d="m299.84375 32h32v20h-32zm0 0" fill="#ea9d2d"/><path d="m303.84375 0h24c11.042969 0 20 8.953125 20 20s-8.957031 20-20 20h-24c-11.046875 0-20-8.953125-20-20s8.953125-20 20-20zm0 0" fill="#985713"/><path d="m363.707031 88.992188 31.007813-25.269532 25.269531 31.003906-31.003906 25.273438zm0 0" fill="#aac16b"/><path d="m363.695312 88.996094 27.0625-22.054688 22.648438 27.785156-27.0625 22.058594zm0 0" fill="#a4bb67"/><path d="m267.84375 64c0 13.253906-10.746094 24-24 24s-24-10.746094-24-24 10.746094-24 24-24 24 10.746094 24 24zm0 0" fill="#f55648"/><path d="m242.578125 40.128906c-7.042969.371094-13.558594 3.835938-17.800781 9.472656-4.328125 7.410157-3.214844 16.792969 2.730468 22.984376 5.945313 6.191406 15.273438 7.683593 22.855469 3.65625 7.578125-4.023438 11.566407-12.59375 9.765625-20.984376-1.800781-8.390624-8.953125-14.570312-17.519531-15.128906zm0 0" fill="#ff5a4b"/><g fill="#fbedbf"><path d="m235.835938 112h16v16h-16zm0 0"/><path d="m307.835938 96h16v16h-16zm0 0"/><path d="m307.835938 128h16v24h-16zm0 0"/><path d="m395.835938 136h16v16h-16zm0 0"/><path d="m395.835938 168h16v16h-16zm0 0"/></g><path d="m182.714844 464-7.65625-22.960938c-5.316406-15.953124-3.695313-33.410156 4.472656-48.109374l27.183594-48.929688v44c0 12.980469 4.210937 25.613281 12 36 7.789062 10.386719 12 23.019531 12 36v4zm0 0" fill="#f08b24"/><path d="m132.742188 443.566406 15.171874-5.058594 7.652344 22.957032-15.171875 5.0625zm0 0" fill="#fbedbf"/><path d="m147.199219 372.109375 17.785156-31.996094 13.988281 7.773438-17.789062 31.996093zm0 0" fill="#fbedbf"/><path d="m132.730469 443.566406c-6.003907-18.085937-4.164063-37.859375 5.082031-54.527344l13.980469 7.777344c-7.066407 12.742188-8.476563 27.867188-3.878907 41.695313zm0 0" fill="#fbedbf"/><path d="m338.90625 392.929688-27.183594-48.929688v44c0 12.980469-4.210937 25.613281-12 36-1.070312 1.433594-1.902344 3-2.839844 4.511719 3.578126-16.960938.921876-34.640625-7.488281-49.800781l-32.617187-58.710938v52.800781c0 15.578125-5.050782 30.734375-14.398438 43.199219s-14.398437 27.621094-14.398437 43.199219v4.800781h107.742187l7.65625-22.960938c5.316406-15.953124 3.695313-33.410156-4.472656-48.109374zm0 0" fill="#fd9226"/><path d="m338.25 347.882812 13.984375-7.769531 10.734375 19.320313-13.984375 7.773437zm0 0" fill="#fbedbf"/><path d="m387.980469 424.257812-16-.515624c.296875-9.398438-1.957031-18.703126-6.523438-26.925782l-8.445312-15.199218 13.984375-7.769532 8.445312 15.199219c5.976563 10.75 8.929688 22.917969 8.539063 35.210937zm0 0" fill="#fbedbf"/><path d="m361.660156 461.46875 5.335938-15.996094 15.171875 5.0625-5.339844 15.996094zm0 0" fill="#fbedbf"/><path d="m172.820312 324.425781 8-16 14.3125 7.15625-8 16zm0 0" fill="#fbedbf"/><path d="m449.636719 117.65625-11.3125-11.3125c6.597656-6.613281 7.621093-16.960938 2.453125-24.742188l-3.445313-5.1875 13.3125-8.863281 3.445313 5.167969c9.386718 14.136719 7.523437 32.921875-4.453125 44.9375zm0 0" fill="#fbedbf"/><path d="m213.019531 242.113281c3.867188 0 7.179688-2.765625 7.871094-6.570312.691406-3.804688-1.4375-7.558594-5.054687-8.917969-30.464844-11.480469-53.289063-23.265625-62.402344-32.144531l-7.671875-8c-.265625-.21875-.550781-.417969-.847657-.59375-.480468 8.171875.308594 16.367187 2.335938 24.296875 19.464844 13.273437 40.636719 23.84375 62.945312 31.417968.902344.335938 1.859376.507813 2.824219.511719zm0 0" fill="#ee6d67"/></g><g transform="matrix(1.034482717514038 0 0 1.034482717514038 69.00000183105465 165)" id="L1_7"><path d="M22.489,31c-0.553,0-1-0.447-1-1V1c0-0.553,0.447-1,1-1s1,0.447,1,1v29   C23.489,30.553,23.042,31,22.489,31z" fill="#d2d5d7"/><path d="M22.489,58L22.489,58c-1.65,0-3-1.35-3-3V33c0-1.65,1.35-3,3-3h0c1.65,0,3,1.35,3,3v22   C25.489,56.65,24.139,58,22.489,58z" fill="#a46f3e"/><path d="M22.489,36L22.489,36c-0.55,0-1-0.45-1-1v0c0-0.55,0.45-1,1-1h0c0.55,0,1,0.45,1,1v0   C23.489,35.55,23.039,36,22.489,36z" fill="#d2d5d7"/><path d="M22.489,40L22.489,40c-0.55,0-1-0.45-1-1v0c0-0.55,0.45-1,1-1h0c0.55,0,1,0.45,1,1v0   C23.489,39.55,23.039,40,22.489,40z" fill="#d2d5d7"/><path d="M22.489,19c-2.757,0-5-2.243-5-5V1c0-0.553,0.447-1,1-1s1,0.447,1,1v13c0,1.654,1.346,3,3,3   s3-1.346,3-3V1c0-0.553,0.447-1,1-1s1,0.447,1,1v13C27.489,16.757,25.246,19,22.489,19z" fill="#d2d5d7"/><path d="M37.5,32c3.078-3.078,3-10.268,3-18s0.542-13-6-13v31H37.5z" fill="#d2d5d7"/><path d="M36.5,58L36.5,58c-1.65,0-3-1.35-3-3V33c0-1.65,1.35-3,3-3h0c1.65,0,3,1.35,3,3v22   C39.5,56.65,38.15,58,36.5,58z" fill="#a46f3e"/><path d="M36.5,36L36.5,36c-0.55,0-1-0.45-1-1v0c0-0.55,0.45-1,1-1h0c0.55,0,1,0.45,1,1v0   C37.5,35.55,37.05,36,36.5,36z" fill="#d2d5d7"/><path d="M36.5,40L36.5,40c-0.55,0-1-0.45-1-1v0c0-0.55,0.45-1,1-1h0c0.55,0,1,0.45,1,1v0   C37.5,39.55,37.05,40,36.5,40z" fill="#d2d5d7"/></g><g transform="matrix(0.1171875 0 0 0.1171875 284 258)" id="L1_8"><path d="m437.34375 342.222656c-7.234375-30.753906-31.316406-45.171875-61.527344-50.492187-6.945312-1.222657-14.175781-1.976563-21.613281-2.324219-5.492187-.175781-10.050781-1.308594-13.917969-3.140625-21.699218 41.132813-120.902344 38.226563-137.460937 0v-.289063c-4.007813 2.003907-8.773438 3.253907-14.523438 3.429688-7.234375.347656-14.265625 1.042969-21.003906 2.207031-29.371094 5.03125-53.015625 18.574219-61.265625 47.207031 12.75 12.238282 116.285156 105.578126 117.097656 110.691407h217.378906v-52.320313c0-5.582031 2.527344-10.613281 6.507813-13.984375zm0 0" fill="#64b0d9"/><path d="m72.1875 288.003906c-2.027344 0-4.050781-.785156-5.574219-2.351562-3.003906-3.078125-2.941406-8.007813.140625-11.007813 7.34375-7.15625 5.769532-10.238281 1.96875-17.675781-4.347656-8.511719-10.921875-21.371094 5.945313-37.242188 3.128906-2.945312 8.058593-2.800781 11.007812.332032 2.945313 3.132812 2.796875 8.058594-.335937 11.003906-8.351563 7.859375-6.710938 11.070312-2.746094 18.820312 4.21875 8.261719 10.597656 20.742188-4.96875 35.910157-1.515625 1.476562-3.476562 2.210937-5.4375 2.210937zm0 0" fill="#666666"/><path d="m115.300781 246.261719c-2.027343 0-4.054687-.785157-5.578125-2.351563-3.003906-3.078125-2.941406-8.007812.140625-11.007812 7.34375-7.15625 5.765625-10.230469 1.957031-17.671875-4.355468-8.507813-10.941406-21.371094 5.925782-37.246094 3.132812-2.945313 8.058594-2.796875 11.007812.335937 2.949219 3.128907 2.800782 8.054688-.332031 11.003907-8.347656 7.855469-6.703125 11.0625-2.734375 18.8125 4.226562 8.261719 10.621094 20.742187-4.953125 35.917969-1.515625 1.472656-3.476563 2.207031-5.433594 2.207031zm0 0" fill="#666666"/><path d="m473.042969 389.183594c-4.300781 0-7.785157-3.484375-7.785157-7.78125v-127.113282c0-4.296874 3.484376-7.78125 7.785157-7.78125s7.789062 3.484376 7.789062 7.78125v127.109376c0 4.300781-3.488281 7.785156-7.789062 7.785156zm0 0" fill="#666666"/><g><path d="m188.300781 289.40625c-7.234375.347656-14.265625 1.042969-21.003906 2.207031v47.207031l15.773437 14.15625 19.753907-14.15625v-52.84375c-4.007813 2.003907-8.773438 3.253907-14.523438 3.429688zm0 0" fill="#e6e6e6"/><path d="m165.785156 436.636719h42.296875c7.582031 0 13.914063 5.609375 15.046875 12.875h180.894532l-13.859376-80.199219c-1.304687-7.789062-6.449218-14.386719-14.351562-14.386719v-63.195312c-6.941406-1.222657-14.175781-1.976563-21.613281-2.324219-5.488281-.175781-10.050781-1.308594-13.914063-3.140625v68.660156h-108.613281c.230469 1.742188-53.21875 76.507813-65.886719 81.710938zm0 0" fill="#e6e6e6"/><path d="m323.292969 267.953125-49.472657-15.609375-54.46875 15.316406-.144531.261719c-3.628906 7.703125-8.773437 14.214844-16.382812 18.050781v.292969c16.558593 38.222656 115.761719 41.132813 137.460937 0-7.957031-3.78125-13.011718-10.582031-16.992187-18.3125zm0 0" fill="#fcc368"/><path d="m330.730469 119.0625c-39.390625-5.839844-79.015625-5.957031-118.871094 0-11.503906 1.714844-23.007813 3.953125-34.539063 6.6875v75.78125c0 26.832031 19.546876 50.523438 42.035157 66.132812 18.359375 12.789063 38.691406 20.144532 51.792969 19.445313 16.558593-.929687 35.558593-7.847656 52.144531-19.15625 23.589843-16.101563 42.296875-41.101563 42.296875-70.460937v-71.769532c-11.589844-2.707031-23.210938-4.945312-34.859375-6.660156zm0 0" fill="#ffdda6"/><path d="m273.910156 0c-18.15625.0585938-37.273437 9.359375-46.769531 27.878906h-25.507813c-36.863281 0-58.824218 40.519532-24.316406 62v56.363282c11.535156-2.730469 23.039063-4.941407 34.542969-6.683594 39.855469-5.960938 79.480469-5.84375 118.871094 0 11.648437 1.742187 23.265625 3.953125 34.859375 6.683594v-56.363282c34.511718-21.480468 13.507812-62-23.355469-62h-27.425781c-5.371094-18.519531-22.425782-27.8203122-40.550782-27.878906zm0 0" fill="#e6e6e6"/><path d="m365.589844 89.878906c34.511718-21.480468 13.507812-62.003906-23.355469-62.003906h-21.527344c33.058594 0 53.480469 29.5625 32.390625 51.800781-6.769531 7.121094-8.917968 3.429688-8.917968 13.402344l-.085938 48.6875c7.175781 1.308594 14.351562 2.792969 21.496094 4.476563zm0 0" fill="#c2c7cc"/><path d="m365.589844 183.945312c-1.21875-.234374-12.144532-2.324218-21.496094-9.765624v18.835937c0 29.355469-18.738281 54.386719-42.324219 70.460937-16.589843 11.335938-35.585937 18.226563-52.144531 19.15625-.582031.027344-1.164062.058594-1.773438.058594 8.773438 3.167969 16.90625 4.765625 23.296876 4.417969 16.558593-.929687 35.558593-7.847656 52.144531-19.15625 23.589843-16.105469 42.296875-41.105469 42.296875-70.464844zm0 0" fill="#fcc368"/><path d="m340.289062 286.265625c-7.960937-3.78125-13.015624-10.582031-16.996093-18.3125-9.761719 6.65625-20.390625 11.800781-30.820313 15.085937 4.792969 9.273438 8.742188 13.515626 22.601563 20.085938 1.65625.785156 3.457031 1.453125 5.371093 1.945312 8.714844-4.675781 15.6875-10.957031 19.84375-18.804687zm0 0" fill="#eda93b"/><path d="m437.34375 342.222656c-7.234375-30.753906-31.316406-45.171875-61.527344-50.492187-6.945312-1.222657-14.175781-1.976563-21.613281-2.324219-5.492187-.175781-10.050781-1.308594-13.917969-3.140625-4.152344 7.847656-11.125 14.128906-19.839844 18.808594 2.585938.695312 5.402344 1.105469 8.542969 1.191406 3.832031.203125 7.582031.464844 11.296875.871094 3.515625.378906 6.945313.84375 10.316406 1.453125 9.03125 1.597656 17.542969 4.011718 25.214844 7.414062 17.921875 8.019532 31.253906 21.539063 36.339844 43.105469 7.320312 31.074219 10.109375 58.515625 10.109375 90.402344h18.242187v-52.320313c0-5.582031 2.527344-10.613281 6.507813-13.984375zm0 0" fill="#4a83c9"/><path d="m375.816406 291.730469c-6.945312-1.222657-14.175781-1.976563-21.613281-2.324219-5.492187-.175781-10.050781-1.308594-13.917969-3.140625v20.871094c3.515625.378906 6.945313.84375 10.316406 1.453125 9.03125 1.597656 17.542969 4.011718 25.214844 7.414062zm0 0" fill="#c2c7cc"/><path d="m505.578125 411.433594c0-17.90625-14.640625-32.554688-32.535156-32.554688h-14.234375c-4.472656 0-8.597656 1.625-11.792969 4.328125-3.980469 3.371094-6.507813 8.402344-6.507813 13.984375v58.863282c0 10.085937 8.25 18.339843 18.300782 18.339843h14.234375c17.894531 0 32.535156-14.648437 32.535156-32.554687zm0 0" fill="#ffdda6"/><path d="m489.574219 141.621094h-33.058594c-12.347656 0-22.425781 10.117187-22.425781 22.441406v67.785156c0 12.355469 10.078125 22.441406 22.425781 22.441406h33.058594c6.941406 0 13.15625-3.195312 17.285156-8.195312 3.195313-3.894531 5.140625-8.835938 5.140625-14.242188v-67.789062c0-5.378906-1.945312-10.347656-5.140625-14.214844-4.125-5-10.34375-8.226562-17.285156-8.226562zm0 0" fill="#e6e6e6"/><path d="m390.164062 369.3125c-1.304687-7.789062-6.445312-14.386719-14.347656-14.386719h-20.683594l16.933594 94.585938h31.957032zm0 0" fill="#c2c7cc"/><path d="m505.578125 411.433594c0-17.90625-14.640625-32.554688-32.535156-32.554688h-14.234375c-1.886719 0-3.714844.289063-5.460938.839844 14.382813 3.34375 25.1875 16.335938 25.1875 31.714844v30.40625c0 15.378906-10.804687 28.34375-25.1875 31.714844 1.746094.523437 3.574219.84375 5.460938.84375h14.234375c17.894531 0 32.535156-14.652344 32.535156-32.558594zm0 0" fill="#fcc368"/><path d="m289.042969 354.925781c-1.191407-9.039062-9.003907-16.105469-18.386719-16.105469h-31.199219c-10.953125 0-12.8125 10.320313-15.164062 20.929688-1.191407 5.289062 22.71875 11.25 20.828125 16.191406h25.535156c10.226562 0 18.5625-8.34375 18.5625-18.546875 0-.839843-.058594-1.65625-.175781-2.46875zm0 0" fill="#fcc368"/><path d="m49.734375 338.820312h-31.199219c-10.199218 0-18.535156 8.371094-18.535156 18.574219s8.335938 18.546875 18.535156 18.546875h25.476563l24.195312-22.964844zm0 0" fill="#fcc368"/><path d="m202.824219 338.820312h-153.089844c-10.953125 0-12.636719 11.105469-10.285156 21.742188 1.191406 5.351562 2.730469 10.464844 4.5625 15.378906 10.804687 28.75 32.417969 49.96875 59.722656 60.695313l35.355469 22.089843 47.207031-22.089843c26.984375-11.132813 48.277344-33.226563 58.824219-60.695313 1.886718-4.941406 3.457031-10.085937 4.617187-15.378906 2.355469-10.636719.699219-21.742188-10.28125-21.742188zm0 0" fill="#f78411"/><path d="m186.296875 436.636719h-119.890625c-8.394531 0-15.222656 6.859375-15.222656 15.230469v15.902343c0 8.371094 6.828125 15.230469 15.222656 15.230469h162.183594c8.367187 0 15.222656-6.859375 15.222656-15.230469v-15.902343c0-.785157-.058594-1.597657-.203125-2.355469-1.132813-7.265625-7.464844-12.875-15.019531-12.875zm0 0" fill="#808080"/><path d="m239.457031 338.820312h-31.753906c10.953125 0 12.636719 11.105469 10.285156 21.742188-1.191406 5.292969-2.730469 10.4375-4.648437 15.378906-2.003906 5.261719-4.414063 10.289063-7.175782 15.117188-4.964843 8.632812-11.066406 16.507812-18.125 23.425781-.464843.4375-.929687.902344-1.394531 1.339844-9.296875 8.777343-20.160156 15.871093-32.128906 20.8125h31.78125c5.691406-2.355469 11.125-5.175781 16.265625-8.460938 19.203125-12.238281 34.21875-30.550781 42.558594-52.234375 1.886718-4.941406 3.457031-10.085937 4.617187-15.378906.4375-1.886719.726563-3.777344.84375-5.636719.640625-8.574219-2.089843-16.105469-11.125-16.105469zm0 0" fill="#f74311"/><path d="m243.609375 449.511719c-1.132813-7.265625-7.464844-12.875-15.019531-12.875h-31.78125c7.582031 0 13.886718 5.609375 15.050781 12.875.113281.757812.171875 1.570312.171875 2.355469v15.902343c0 8.371094-6.855469 15.230469-15.222656 15.230469h31.78125c8.367187 0 15.222656-6.859375 15.222656-15.230469v-15.902343c0-.785157-.054688-1.597657-.203125-2.355469zm0 0" fill="#666666"/><path d="m506.859375 149.847656c-4.125-5-10.34375-8.226562-17.285156-8.226562h-30.417969c12.320312 0 22.429688 10.117187 22.429688 22.441406v67.785156c0 12.355469-10.109376 22.441406-22.429688 22.441406h30.417969c6.941406 0 13.15625-3.195312 17.285156-8.195312 3.195313-3.894531 5.140625-8.835938 5.140625-14.242188v-67.789062c0-5.378906-1.945312-10.347656-5.140625-14.214844zm0 0" fill="#c2c7cc"/><path d="m365.589844 146.242188c-11.589844-2.730469-23.210938-4.941407-34.859375-6.683594-4.097657 36.914062 32.535156 43.976562 34.859375 44.386718zm0 0" fill="#808080"/><path d="m211.859375 139.558594c-11.503906 1.742187-23.007813 3.953125-34.539063 6.683594v37.644531c5.023438-.988281 38.433594-9.070313 34.539063-44.328125zm0 0" fill="#808080"/><path d="m365.589844 146.242188c-7.144532-1.683594-14.320313-3.167969-21.496094-4.476563v32.410156c9.351562 7.441407 20.277344 9.535157 21.496094 9.769531zm0 0" fill="#666666"/></g><path d="m224.285156 188.78125c-1.964844 0-3.929687-.742188-5.445312-2.222656-3.078125-3.003906-3.121094-7.945313-.117188-11.019532 5.558594-5.6875 15.199219-6.339843 19.089844-6.355468h.15625c4.046875 0 13.667969.640625 19.300781 6.308594 3.03125 3.050781 3.015625 7.980468-.035156 11.011718-3.050781 3.027344-7.980469 3.011719-11.011719-.035156-2.503906-2.253906-13.84375-2.277344-16.382812-.027344-1.523438 1.558594-3.535156 2.339844-5.554688 2.339844zm0 0" fill="#666666"/><path d="m287.351562 188.78125c-1.964843 0-3.929687-.742188-5.449218-2.222656-3.074219-3.007813-3.121094-7.945313-.113282-11.019532 5.5625-5.6875 15.203126-6.339843 19.089844-6.355468h.15625c4.042969 0 13.664063.640625 19.300782 6.308594 3.03125 3.050781 3.015624 7.980468-.035157 11.011718-3.050781 3.027344-7.980469 3.011719-11.015625-.035156-2.503906-2.253906-13.839844-2.277344-16.378906-.027344-1.523438 1.558594-3.539062 2.339844-5.554688 2.339844zm0 0" fill="#666666"/><path d="m270.308594 93.304688c-4.300782 0-7.789063-3.488282-7.789063-7.785157v-35.753906c0-4.300781 3.488281-7.785156 7.789063-7.785156 4.300781 0 7.785156 3.484375 7.785156 7.785156v35.753906c0 4.296875-3.484375 7.785157-7.785156 7.785157zm0 0" fill="#c2c7cc"/><path d="m217.4375 109.4375c-4.300781 0-7.789062-3.488281-7.789062-7.785156v-35.726563c0-4.296875 3.488281-7.78125 7.789062-7.78125s7.785156 3.484375 7.785156 7.78125v35.726563c0 4.296875-3.484375 7.785156-7.785156 7.785156zm0 0" fill="#c2c7cc"/><path d="m323.175781 109.4375c-4.300781 0-7.785156-3.488281-7.785156-7.785156v-35.726563c0-4.296875 3.484375-7.78125 7.785156-7.78125s7.789063 3.484375 7.789063 7.78125v35.726563c0 4.296875-3.488282 7.785156-7.789063 7.785156zm0 0" fill="#c2c7cc"/></g><g transform="matrix(1.0526316165924072 0 0 1.0526316165924072 265 130)" id="L1_10"><path d="M54,34h-5v-6h5c1.654,0,3,1.346,3,3S55.654,34,54,34z M51,32h3c0.552,0,1-0.448,1-1s-0.448-1-1-1h-3   V32z" fill="#e6e6e6"/><path d="M8,34H3c-1.654,0-3-1.346-3-3s1.346-3,3-3h5V34z M3,30c-0.552,0-1,0.448-1,1s0.448,1,1,1h3v-2H3z" fill="#e6e6e6"/><path d="M31.5,11C29.57,11,28,9.43,28,7.5S29.57,4,31.5,4S35,5.57,35,7.5S33.43,11,31.5,11z M31.5,6   C30.673,6,30,6.673,30,7.5S30.673,9,31.5,9S33,8.327,33,7.5S32.327,6,31.5,6z" fill="#d2d5d7"/><path d="M43,18c-1.103,0-2-0.897-2-2s0.897-2,2-2s2,0.897,2,2S44.103,18,43,18z M43,15.998V16V15.998z" fill="#e6e6e6"/><path d="M13.009,20H13c-0.845,0-1.653-0.261-2.338-0.754c-0.448-0.323-0.549-0.948-0.227-1.396   c0.321-0.447,0.948-0.549,1.396-0.227C12.174,17.87,12.577,18,13,18c0.553,0,1.004,0.447,1.004,1S13.562,20,13.009,20z    M15.429,18.761c-0.203,0-0.409-0.062-0.586-0.19c-0.447-0.324-0.547-0.949-0.223-1.396C14.869,16.831,15,16.425,15,16   c0-0.553,0.447-1.019,1-1.019s1,0.43,1,0.982V16c0,0.85-0.263,1.661-0.761,2.348C16.044,18.617,15.738,18.761,15.429,18.761z    M10,17.009c-0.553,0-1-0.438-1-0.991V16c0-0.84,0.259-1.645,0.747-2.328c0.322-0.45,0.945-0.554,1.396-0.232   c0.449,0.321,0.553,0.945,0.231,1.395C11.129,15.177,11,15.58,11,16C11,16.553,10.553,17.009,10,17.009z M14.738,14.555   c-0.201,0-0.403-0.061-0.58-0.186C13.82,14.128,13.42,14,13,14c-0.553,0-1.013-0.447-1.013-1s0.434-1,0.986-1H13   c0.838,0,1.641,0.256,2.32,0.74c0.449,0.321,0.554,0.945,0.233,1.396C15.358,14.409,15.051,14.555,14.738,14.555z" fill="#e6e6e6"/><path d="M27.985,23h-4.971l-0.3-0.396C22.247,21.986,22,21.259,22,20.5c0-1.93,1.57-3.5,3.5-3.5   s3.5,1.57,3.5,3.5c0,0.759-0.247,1.486-0.715,2.104L27.985,23z M24.09,21h2.82c0.053-0.144,0.09-0.312,0.09-0.5   c0-0.827-0.673-1.5-1.5-1.5S24,19.673,24,20.5C24,20.688,24.037,20.856,24.09,21z" fill="#e6e6e6"/><path d="M51.684,22H5.316c-0.572,0-0.925,0.627-0.631,1.12l1.631,2.733C6.764,26.604,7,27.462,7,28.336   v12.462C7,43.671,9.316,46,12.172,46h2.075c-0.641-1.309-0.081-2.142,2.378-4c1.494,1.977,2.483,3.05,2.61,4h7.624   c-3.142-4.069-3.508-5.015,1.765-9c3.747,4.96,5.443,6.248,2.729,9h6.641c-0.641-1.309-0.081-2.142,2.378-4   c1.494,1.977,2.483,3.05,2.61,4h1.843C47.684,46,50,43.671,50,40.799V28.336c0-0.875,0.236-1.733,0.684-2.482l1.631-2.734   C52.609,22.627,52.256,22,51.684,22z" fill="#d2d5d7"/><path d="M41,53H15c-0.553,0-1-0.447-1-1s0.447-1,1-1h26c0.553,0,1,0.447,1,1S41.553,53,41,53z" fill="#e6e6e6"/><path d="M46,28H20.074c-0.553,0-1-0.447-1-1s0.447-1,1-1H46c0.553,0,1,0.447,1,1S46.553,28,46,28z" fill="#ffffff"/><g><g><path d="M16.626,49.294c3.969-2.999,2.999-3.325,0-7.294C12.656,44.999,13.627,45.325,16.626,49.294z" fill="#ef771d"/><path d="M16.431,50.694l-0.603-0.798c-0.304-0.401-0.587-0.767-0.846-1.1     c-1.329-1.712-2.132-2.746-1.961-4.031c0.16-1.211,1.179-2.187,3.002-3.563l0.798-0.603l0.603,0.798     c0.304,0.402,0.587,0.767,0.846,1.1c1.329,1.713,2.131,2.746,1.96,4.031c-0.16,1.211-1.179,2.187-3.001,3.563L16.431,50.694z      M16.445,43.408c-0.739,0.601-1.388,1.219-1.441,1.62c-0.061,0.457,0.619,1.331,1.559,2.542c0.079,0.103,0.16,0.207,0.244,0.315     c0.738-0.601,1.388-1.219,1.44-1.62c0.061-0.457-0.618-1.331-1.558-2.542C16.61,43.621,16.528,43.517,16.445,43.408z" fill="#ef771d"/></g><g><path d="M28.626,48.294c6.146-4.643,4.643-5.148,0-11.294C22.48,41.643,23.982,42.148,28.626,48.294z" fill="#f9da49"/><path d="M28.431,49.694l-0.603-0.798c-0.472-0.625-0.912-1.19-1.313-1.709     c-1.971-2.538-3.16-4.07-2.926-5.833c0.223-1.684,1.73-3.109,4.435-5.152l0.798-0.603l0.603,0.798     c0.473,0.625,0.912,1.191,1.313,1.709c1.97,2.538,3.159,4.07,2.926,5.833c-0.224,1.684-1.73,3.109-4.435,5.152L28.431,49.694z      M28.439,38.404c-1.664,1.306-2.756,2.366-2.868,3.213c-0.124,0.934,0.872,2.218,2.523,4.345     c0.228,0.293,0.467,0.602,0.718,0.928c1.663-1.306,2.755-2.366,2.867-3.213c0.124-0.934-0.872-2.218-2.522-4.344     C28.93,39.039,28.69,38.73,28.439,38.404z" fill="#f9da49"/></g><g><path d="M40.374,42c-3.969,2.999-2.999,3.325,0,7.294C44.344,46.295,43.373,45.969,40.374,42z" fill="#ef771d"/><path d="M40.179,50.694l-0.603-0.798c-0.304-0.402-0.587-0.767-0.846-1.1     c-1.329-1.713-2.131-2.746-1.96-4.031c0.16-1.211,1.179-2.187,3.001-3.563l0.798-0.603l0.603,0.798     c0.304,0.401,0.587,0.767,0.846,1.1c1.329,1.712,2.132,2.746,1.961,4.031c-0.16,1.211-1.179,2.187-3.002,3.563L40.179,50.694z      M40.193,43.408c-0.738,0.601-1.388,1.219-1.44,1.62c-0.061,0.457,0.618,1.331,1.558,2.542c0.079,0.103,0.161,0.207,0.244,0.315     c0.739-0.601,1.388-1.219,1.441-1.62c0.061-0.457-0.619-1.331-1.559-2.542C40.358,43.621,40.277,43.517,40.193,43.408z" fill="#ef771d"/></g></g><path d="M15.827,28H11c-0.553,0-1-0.447-1-1s0.447-1,1-1h4.827c0.553,0,1,0.447,1,1S16.38,28,15.827,28z" fill="#ffffff"/></g><g transform="matrix(0.1171875 0 0 0.1171875 175.9999995136261 263.00000137329107)" id="L1_14"><path d="m229.293 89.564c-4.204 0-7.611-3.407-7.611-7.611 0-15.181 12.178-17.523 12.178-24.781 0-7.262-12.178-9.598-12.178-24.782 0-15.182 12.178-17.519 12.178-24.778 0-4.204 3.408-7.611 7.611-7.611 4.204 0 7.611 3.407 7.611 7.611 0 15.181-12.178 17.521-12.178 24.778 0 7.266 12.178 9.588 12.178 24.782 0 15.178-12.178 17.524-12.178 24.781.001 4.204-3.407 7.611-7.611 7.611z" fill="#fedba6"/><path d="m183.438 89.564c-4.204 0-7.611-3.407-7.611-7.611 0-15.181 12.178-17.523 12.178-24.781 0-7.262-12.178-9.598-12.178-24.782 0-15.182 12.178-17.519 12.178-24.778 0-4.204 3.408-7.611 7.611-7.611 4.204 0 7.611 3.407 7.611 7.611 0 15.181-12.178 17.521-12.178 24.778 0 7.266 12.178 9.588 12.178 24.782 0 15.178-12.178 17.524-12.178 24.781.001 4.204-3.407 7.611-7.611 7.611z" fill="#fedba6"/><path d="m275.149 89.564c-4.204 0-7.612-3.407-7.612-7.611 0-15.181 12.178-17.523 12.178-24.781 0-7.262-12.178-9.598-12.178-24.782 0-15.182 12.178-17.519 12.178-24.778 0-4.204 3.408-7.611 7.612-7.611s7.611 3.407 7.611 7.611c0 15.181-12.178 17.521-12.178 24.778 0 7.266 12.178 9.588 12.178 24.782 0 15.178-12.178 17.524-12.178 24.781 0 4.204-3.408 7.611-7.611 7.611z" fill="#fedba6"/><g><path d="m318.597 509.599c-7.39 0-14.071-5.077-15.806-12.586l-40.891-176.935c-2.02-8.737 3.427-17.458 12.164-19.477 8.735-2.022 17.458 3.425 19.478 12.165l40.891 176.935c2.02 8.737-3.427 17.458-12.164 19.477-1.231.284-2.461.421-3.672.421z" fill="#8d9ca8"/><path d="m148.239 484.449c-1.211 0-2.441-.137-3.671-.421-8.737-2.019-14.184-10.739-12.164-19.477l35.079-151.785c2.019-8.738 10.74-14.181 19.477-12.165 8.737 2.019 14.184 10.739 12.164 19.477l-35.079 151.785c-1.735 7.508-8.417 12.586-15.806 12.586z" fill="#8d9ca8"/><path d="m296.078 411.081h-131.132c-8.407 0-15.223-6.816-15.223-15.223s6.816-15.223 15.223-15.223h131.133c8.407 0 15.223 6.816 15.223 15.223-.001 8.408-6.816 15.223-15.224 15.223z" fill="#8d9ca8"/><circle cx="144" cy="467" r="44" fill="#596c76"/><circle cx="144" cy="467" r="18" fill="#9facba"/><path d="m186.96 300.602c-8.737-2.017-17.458 3.426-19.477 12.165l-10.61 45.907c9.404 5.662 19.519 10.262 30.18 13.636l12.071-52.231c2.02-8.738-3.426-17.459-12.164-19.477z" fill="#7a8c98"/><path d="m293.541 312.766c-2.02-8.739-10.742-14.186-19.478-12.165-8.737 2.019-14.184 10.739-12.164 19.477l11.98 51.837c10.647-3.477 20.739-8.177 30.11-13.94z" fill="#7a8c98"/><path d="m423.233 240.253h-77.964v-33.323h77.964c9.202 0 16.661 7.46 16.661 16.661 0 9.203-7.459 16.662-16.661 16.662z" fill="#8d9ca8"/><path d="m88.158 174.109v34.318c0 78.26 63.442 141.701 141.701 141.701 78.259 0 141.701-63.442 141.701-141.701v-34.318z" fill="#e53950"/><path d="m313.855 146.899h-163.034c-5.424 0-9.821-4.397-9.821-9.821v-17.607c0-5.424 4.397-9.821 9.821-9.821h163.035c5.424 0 9.821 4.397 9.821 9.821v17.607c-.001 5.424-4.398 9.821-9.822 9.821z" fill="#aa6a51"/><path d="m423.233 206.931h-40.275c9.202 0 16.661 7.46 16.661 16.661 0 9.202-7.46 16.661-16.661 16.661h40.275c9.202 0 16.661-7.459 16.661-16.661s-7.459-16.661-16.661-16.661z" fill="#7a8c98"/><path d="m331.286 174.109v34.318c0 71.422-52.844 130.492-121.564 140.27 6.579.936 13.3 1.431 20.137 1.431 78.259 0 141.701-63.442 141.701-141.701v-34.318z" fill="#ca2e43"/><path d="m372.39 177.321h-285.061c-8.407 0-15.223-6.816-15.223-15.223 0-8.407 6.816-15.223 15.223-15.223h285.061c8.407 0 15.223 6.816 15.223 15.223 0 8.408-6.816 15.223-15.223 15.223z" fill="#8d9ca8"/><path d="m372.39 146.875h-40.275c8.407 0 15.223 6.816 15.223 15.223s-6.816 15.223-15.223 15.223h40.275c8.407 0 15.223-6.816 15.223-15.223s-6.816-15.223-15.223-15.223z" fill="#7a8c98"/></g></g></defs><g fi:class="KUsePattern" opacity="0.45"><pattern id="pattern_L1_0" width="350" height="350" patternUnits="userSpaceOnUse"><use xlink:href="#L1_0" x="-350" y="-350"/><use xlink:href="#L1_0" x="0" y="-350"/><use xlink:href="#L1_0" x="350" y="-350"/><use xlink:href="#L1_0" x="-350" y="0"/><use xlink:href="#L1_0" x="0" y="0"/><use xlink:href="#L1_0" x="350" y="0"/><use xlink:href="#L1_0" x="-350" y="350"/><use xlink:href="#L1_0" x="0" y="350"/><use xlink:href="#L1_0" x="350" y="350"/></pattern><rect x="0" y="0" width="100%" height="100%" fill="url(#pattern_L1_0)"/></g><g fi:class="KUsePattern" opacity="0.5"><pattern id="pattern_L1_1" width="350" height="350" patternUnits="userSpaceOnUse"><use xlink:href="#L1_1" x="-350" y="-350"/><use xlink:href="#L1_1" x="0" y="-350"/><use xlink:href="#L1_1" x="350" y="-350"/><use xlink:href="#L1_1" x="-350" y="0"/><use xlink:href="#L1_1" x="0" y="0"/><use xlink:href="#L1_1" x="350" y="0"/><use xlink:href="#L1_1" x="-350" y="350"/><use xlink:href="#L1_1" x="0" y="350"/><use xlink:href="#L1_1" x="350" y="350"/></pattern><rect x="0" y="0" width="100%" height="100%" fill="url(#pattern_L1_1)"/></g><g fi:class="KUsePattern" transform="matrix(1 0 0 1 20 20)" opacity="0.5"><pattern id="pattern_UNKNOWN" width="350" height="350" patternUnits="userSpaceOnUse"><use xlink:href="#UNKNOWN" x="-350" y="-350"/><use xlink:href="#UNKNOWN" x="0" y="-350"/><use xlink:href="#UNKNOWN" x="350" y="-350"/><use xlink:href="#UNKNOWN" x="-350" y="0"/><use xlink:href="#UNKNOWN" x="0" y="0"/><use xlink:href="#UNKNOWN" x="350" y="0"/><use xlink:href="#UNKNOWN" x="-350" y="350"/><use xlink:href="#UNKNOWN" x="0" y="350"/><use xlink:href="#UNKNOWN" x="350" y="350"/></pattern><rect x="0" y="0" width="100%" height="100%" fill="url(#pattern_UNKNOWN)"/></g><g fi:class="KUsePattern" transform="matrix(1 0 0 1 20 20)" opacity="0.45"><pattern id="pattern_UNKNOWN" width="350" height="350" patternUnits="userSpaceOnUse"><use xlink:href="#UNKNOWN" x="-350" y="-350"/><use xlink:href="#UNKNOWN" x="0" y="-350"/><use xlink:href="#UNKNOWN" x="350" y="-350"/><use xlink:href="#UNKNOWN" x="-350" y="0"/><use xlink:href="#UNKNOWN" x="0" y="0"/><use xlink:href="#UNKNOWN" x="350" y="0"/><use xlink:href="#UNKNOWN" x="-350" y="350"/><use xlink:href="#UNKNOWN" x="0" y="350"/><use xlink:href="#UNKNOWN" x="350" y="350"/></pattern><rect x="0" y="0" width="100%" height="100%" fill="url(#pattern_UNKNOWN)"/></g><g fi:class="KUsePattern" opacity="0.6"><pattern id="pattern_L1_2" width="350" height="350" patternUnits="userSpaceOnUse"><use xlink:href="#L1_2" x="-350" y="-350"/><use xlink:href="#L1_2" x="0" y="-350"/><use xlink:href="#L1_2" x="350" y="-350"/><use xlink:href="#L1_2" x="-350" y="0"/><use xlink:href="#L1_2" x="0" y="0"/><use xlink:href="#L1_2" x="350" y="0"/><use xlink:href="#L1_2" x="-350" y="350"/><use xlink:href="#L1_2" x="0" y="350"/><use xlink:href="#L1_2" x="350" y="350"/></pattern><rect x="0" y="0" width="100%" height="100%" fill="url(#pattern_L1_2)"/></g><g fi:class="KUsePattern" opacity="0.48"><pattern id="pattern_L1_3" width="350" height="350" patternUnits="userSpaceOnUse"><use xlink:href="#L1_3" x="-350" y="-350"/><use xlink:href="#L1_3" x="0" y="-350"/><use xlink:href="#L1_3" x="350" y="-350"/><use xlink:href="#L1_3" x="-350" y="0"/><use xlink:href="#L1_3" x="0" y="0"/><use xlink:href="#L1_3" x="350" y="0"/><use xlink:href="#L1_3" x="-350" y="350"/><use xlink:href="#L1_3" x="0" y="350"/><use xlink:href="#L1_3" x="350" y="350"/></pattern><rect x="0" y="0" width="100%" height="100%" fill="url(#pattern_L1_3)"/></g><g fi:class="KUsePattern" opacity="0.65"><pattern id="pattern_L1_4" width="350" height="350" patternUnits="userSpaceOnUse"><use xlink:href="#L1_4" x="-350" y="-350"/><use xlink:href="#L1_4" x="0" y="-350"/><use xlink:href="#L1_4" x="350" y="-350"/><use xlink:href="#L1_4" x="-350" y="0"/><use xlink:href="#L1_4" x="0" y="0"/><use xlink:href="#L1_4" x="350" y="0"/><use xlink:href="#L1_4" x="-350" y="350"/><use xlink:href="#L1_4" x="0" y="350"/><use xlink:href="#L1_4" x="350" y="350"/></pattern><rect x="0" y="0" width="100%" height="100%" fill="url(#pattern_L1_4)"/></g><g fi:class="KUsePattern"><pattern id="pattern_L1_6" width="350" height="350" patternUnits="userSpaceOnUse"><use xlink:href="#L1_6" x="-350" y="-350"/><use xlink:href="#L1_6" x="0" y="-350"/><use xlink:href="#L1_6" x="350" y="-350"/><use xlink:href="#L1_6" x="-350" y="0"/><use xlink:href="#L1_6" x="0" y="0"/><use xlink:href="#L1_6" x="350" y="0"/><use xlink:href="#L1_6" x="-350" y="350"/><use xlink:href="#L1_6" x="0" y="350"/><use xlink:href="#L1_6" x="350" y="350"/></pattern><rect x="0" y="0" width="100%" height="100%" fill="url(#pattern_L1_6)"/></g><g fi:class="KUsePattern"><pattern id="pattern_L1_7" width="350" height="350" patternUnits="userSpaceOnUse"><use xlink:href="#L1_7" x="-350" y="-350"/><use xlink:href="#L1_7" x="0" y="-350"/><use xlink:href="#L1_7" x="350" y="-350"/><use xlink:href="#L1_7" x="-350" y="0"/><use xlink:href="#L1_7" x="0" y="0"/><use xlink:href="#L1_7" x="350" y="0"/><use xlink:href="#L1_7" x="-350" y="350"/><use xlink:href="#L1_7" x="0" y="350"/><use xlink:href="#L1_7" x="350" y="350"/></pattern><rect x="0" y="0" width="100%" height="100%" fill="url(#pattern_L1_7)"/></g><g fi:class="KUsePattern"><pattern id="pattern_L1_8" width="350" height="350" patternUnits="userSpaceOnUse"><use xlink:href="#L1_8" x="-350" y="-350"/><use xlink:href="#L1_8" x="0" y="-350"/><use xlink:href="#L1_8" x="350" y="-350"/><use xlink:href="#L1_8" x="-350" y="0"/><use xlink:href="#L1_8" x="0" y="0"/><use xlink:href="#L1_8" x="350" y="0"/><use xlink:href="#L1_8" x="-350" y="350"/><use xlink:href="#L1_8" x="0" y="350"/><use xlink:href="#L1_8" x="350" y="350"/></pattern><rect x="0" y="0" width="100%" height="100%" fill="url(#pattern_L1_8)"/></g><g fi:class="KUsePattern"><pattern id="pattern_L1_10" width="350" height="350" patternUnits="userSpaceOnUse"><use xlink:href="#L1_10" x="-350" y="-350"/><use xlink:href="#L1_10" x="0" y="-350"/><use xlink:href="#L1_10" x="350" y="-350"/><use xlink:href="#L1_10" x="-350" y="0"/><use xlink:href="#L1_10" x="0" y="0"/><use xlink:href="#L1_10" x="350" y="0"/><use xlink:href="#L1_10" x="-350" y="350"/><use xlink:href="#L1_10" x="0" y="350"/><use xlink:href="#L1_10" x="350" y="350"/></pattern><rect x="0" y="0" width="100%" height="100%" fill="url(#pattern_L1_10)"/></g><g fi:class="KUsePattern"><pattern id="pattern_L1_14" width="350" height="350" patternUnits="userSpaceOnUse"><use xlink:href="#L1_14" x="-350" y="-350"/><use xlink:href="#L1_14" x="0" y="-350"/><use xlink:href="#L1_14" x="350" y="-350"/><use xlink:href="#L1_14" x="-350" y="0"/><use xlink:href="#L1_14" x="0" y="0"/><use xlink:href="#L1_14" x="350" y="0"/><use xlink:href="#L1_14" x="-350" y="350"/><use xlink:href="#L1_14" x="0" y="350"/><use xlink:href="#L1_14" x="350" y="350"/></pattern><rect x="0" y="0" width="100%" height="100%" fill="url(#pattern_L1_14)"/></g></svg>